<!DOCTYPE svg PUBLIC "-//W3C//DTD SVG 1.1//EN" "http://www.w3.org/Graphics/SVG/1.1/DTD/svg11.dtd">

<!-- Uploaded to: SVG Repo, www.svgrepo.com, Transformed by: SVG Repo Mixer Tools -->
<svg version="1.1" id="Layer_1" xmlns="http://www.w3.org/2000/svg" xmlns:xlink="http://www.w3.org/1999/xlink" viewBox="0 0 512 512" xml:space="preserve" width="800px" height="800px" fill="#000000">

<g id="SVGRepo_bgCarrier" stroke-width="0"/>

<g id="SVGRepo_tracerCarrier" stroke-linecap="round" stroke-linejoin="round"/>

<g id="SVGRepo_iconCarrier"> <ellipse style="fill:#e60073;" cx="256" cy="272" rx="256" ry="240"/> <path style="fill:#FFF1CC;" d="M7.08,328C33.996,433.524,135.192,512,256,512s222-78.476,248.92-184H7.08z"/> <rect x="192" y="92" style="fill:#FFF7E6;" width="128" height="268"/> <path style="fill:#FFF1CC;" d="M320,261.944C303.436,245.896,280.884,236,256,236c-24.88,0-47.44,9.896-64,25.944V360h128V261.944z"/> <path style="fill:#FFE399;" d="M320,295.108C308.048,271.908,283.908,256,256,256c-27.904,0-52.048,15.908-64,39.108V360h128 V295.108z"/> <circle style="fill:#FFD464;" cx="256" cy="328" r="52"/> <circle style="fill:#E78244;" cx="256" cy="328" r="32"/> <circle style="fill:#FFFFFF;" cx="172" cy="364" r="20"/> <path style="fill:#FAFAFA;" d="M156,364c0-10.364,7.908-18.78,18-19.796c-0.668-0.072-1.316-0.204-2-0.204c-11.044,0-20,8.952-20,20 s8.956,20,20,20c0.684,0,1.332-0.132,2-0.204C163.908,382.78,156,374.364,156,364z"/> <circle style="fill:#FFFFFF;" cx="196" cy="368" r="20"/> <path style="fill:#FAFAFA;" d="M180,368c0-10.364,7.908-18.78,18-19.796c-0.668-0.072-1.316-0.204-2-0.204c-11.044,0-20,8.952-20,20 s8.956,20,20,20c0.684,0,1.332-0.132,2-0.204C187.908,386.78,180,378.364,180,368z"/> <g> <circle style="fill:#FFFFFF;" cx="232" cy="372" r="20"/> <circle style="fill:#FFFFFF;" cx="220" cy="364" r="20"/> <circle style="fill:#FFFFFF;" cx="252" cy="380" r="20"/> </g> <path style="fill:#FAFAFA;" d="M236,380c0-10.364,7.908-18.78,18-19.796c-0.668-0.072-1.316-0.204-2-0.204c-11.044,0-20,8.952-20,20 s8.956,20,20,20c0.684,0,1.332-0.132,2-0.204C243.908,398.78,236,390.364,236,380z"/> <g> <circle style="fill:#FFFFFF;" cx="288" cy="368" r="20"/> <circle style="fill:#FFFFFF;" cx="348" cy="360" r="20"/> </g> <path style="fill:#FAFAFA;" d="M348,340c-0.684,0-1.332,0.132-2,0.204c10.092,1.016,18,9.432,18,19.796s-7.908,18.78-18,19.796 c0.668,0.072,1.316,0.204,2,0.204c11.048,0,20-8.952,20-20S359.048,340,348,340z"/> <g> <circle style="fill:#FFFFFF;" cx="332" cy="364" r="20"/> <circle style="fill:#FFFFFF;" cx="304" cy="84" r="52"/> <circle style="fill:#FFFFFF;" cx="312" cy="372" r="20"/> </g> <path style="fill:#FAFAFA;" d="M312,352c-0.684,0-1.332,0.132-2,0.204c10.092,1.016,18,9.432,18,19.796s-7.908,18.78-18,19.796 c0.668,0.072,1.316,0.204,2,0.204c11.048,0,20-8.952,20-20S323.048,352,312,352z"/> <path style="fill:#F5F5F5;" d="M304,32c-1.348,0-2.676,0.1-4,0.204c26.84,2.048,48,24.424,48,51.796s-21.16,49.752-48,51.796 c1.324,0.1,2.652,0.204,4,0.204c28.72,0,52-23.276,52-52S332.72,32,304,32z"/> <circle style="fill:#FFFFFF;" cx="320" cy="124" r="52"/> <path style="fill:#F5F5F5;" d="M320,72c-1.348,0-2.676,0.1-4,0.204c26.84,2.048,48,24.424,48,51.796s-21.16,49.752-48,51.796 c1.324,0.1,2.652,0.204,4,0.204c28.72,0,52-23.276,52-52S348.72,72,320,72z"/> <g> <circle style="fill:#FFFFFF;" cx="256" cy="108" r="52"/> <circle style="fill:#FFFFFF;" cx="256" cy="64" r="64"/> </g> <path style="fill:#F5F5F5;" d="M256,0c-2.024,0-4.024,0.116-6,0.304C282.528,3.332,308,30.676,308,64s-25.472,60.668-58,63.696 c1.976,0.188,3.976,0.304,6,0.304c35.344,0,64-28.648,64-64S291.344,0,256,0z"/> <circle style="fill:#FFFFFF;" cx="196" cy="348" r="20"/> <path style="fill:#FAFAFA;" d="M180,348c0-10.364,7.908-18.78,18-19.796c-0.668-0.072-1.316-0.204-2-0.204c-11.044,0-20,8.952-20,20 s8.956,20,20,20c0.684,0,1.332-0.132,2-0.204C187.908,366.78,180,358.364,180,348z"/> <circle style="fill:#FFFFFF;" cx="320" cy="344" r="20"/> <path style="fill:#FAFAFA;" d="M320,324c-0.684,0-1.332,0.132-2,0.204c10.092,1.016,18,9.432,18,19.796s-7.908,18.78-18,19.796 c0.668,0.072,1.316,0.204,2,0.204c11.048,0,20-8.952,20-20S331.048,324,320,324z"/> <circle style="fill:#FFFFFF;" cx="286" cy="342" r="30"/> <path style="fill:#FAFAFA;" d="M286,312c-0.676,0-1.336,0.064-2,0.1c15.628,1.032,28,14,28,29.9s-12.372,28.868-28,29.9 c0.664,0.044,1.324,0.1,2,0.1c16.572,0,30-13.428,30-30S302.572,312,286,312z"/> <g> <circle style="fill:#FFFFFF;" cx="262" cy="354" r="30"/> <circle style="fill:#FFFFFF;" cx="238" cy="338" r="30"/> </g> <path style="fill:#FAFAFA;" d="M212,338c0-15.9,12.372-28.868,28-29.9c-0.664-0.044-1.324-0.1-2-0.1c-16.568,0-30,13.428-30,30 s13.432,30,30,30c0.676,0,1.336-0.064,2-0.1C224.372,366.868,212,353.9,212,338z"/> <circle style="fill:#FFFFFF;" cx="216" cy="84" r="52"/> <path style="fill:#F5F5F5;" d="M172,84c0-27.372,21.16-49.752,48-51.796c-1.324-0.1-2.652-0.204-4-0.204c-28.716,0-52,23.276-52,52 s23.284,52,52,52c1.348,0,2.676-0.1,4-0.204C193.16,133.748,172,111.372,172,84z"/> <circle style="fill:#FFFFFF;" cx="196" cy="124" r="52"/> <path style="fill:#F5F5F5;" d="M152,124c0-27.372,21.16-49.752,48-51.796c-1.324-0.1-2.652-0.204-4-0.204c-28.716,0-52,23.276-52,52 s23.284,52,52,52c1.348,0,2.676-0.1,4-0.204C173.16,173.748,152,151.372,152,124z"/> <g> <rect x="204" y="172" style="fill:#FFFFFF;" width="4" height="160"/> <rect x="244" y="144" style="fill:#FFFFFF;" width="4" height="188"/> <rect x="232" y="144" style="fill:#FFFFFF;" width="4" height="188"/> <rect x="280" y="144" style="fill:#FFFFFF;" width="4" height="188"/> <rect x="292" y="144" style="fill:#FFFFFF;" width="4" height="188"/> <rect x="308" y="172" style="fill:#FFFFFF;" width="4" height="160"/> </g> <path style="fill:#FAFAFA;" d="M252,360c-0.684,0-1.332,0.132-2,0.204c10.092,1.016,18,9.432,18,19.796s-7.908,18.78-18,19.796 c0.668,0.072,1.316,0.204,2,0.204c11.048,0,20-8.952,20-20S263.048,360,252,360z"/> <path style="fill:#FFFFFF;" d="M320,198.504v16.208c13.384,2.672,22.564,5.828,26.504,8.416 c-8.224,4.836-38.424,11.924-90.504,11.924c-52.076,0-82.284-7.084-90.504-11.928c3.948-2.584,13.124-5.74,26.504-8.416V198.5 c-23.284,4.192-44,11.612-44,24.752c0,25.788,82.664,27.792,108,27.792s108-2.004,108-27.792 C364,210.116,343.28,202.696,320,198.504z"/> </g>

</svg>